<?xml version="1.0" standalone="no"?><!DOCTYPE svg PUBLIC "-//W3C//DTD SVG 1.1//EN" "http://www.w3.org/Graphics/SVG/1.1/DTD/svg11.dtd"><svg t="1718062627730" class="icon" viewBox="0 0 1024 1024" version="1.1" xmlns="http://www.w3.org/2000/svg" p-id="11161" xmlns:xlink="http://www.w3.org/1999/xlink" width="200" height="200"><path d="M259.9 155.5s0 0.1 0 0l56.3 213c-6.6 3.2-13.6 5.7-20.7 7.6l-66.5 17 26.4 63.4c29.7 71.4 71.7 134.4 124.7 187.4s116 94.9 187.2 124.6l63.4 26.4 17-66.6c1.8-7.1 4.4-14.1 8.2-21.3l212.4 57.3c-1.8 27.2-13.2 52.5-32.4 71.7-20.8 20.8-48.9 32.3-79.2 32.3-3.3 0-6.6-0.1-9.9-0.4l-40.9-3.4c-138.3-18.9-266.8-82.3-365.5-181-99-99-162.5-228.1-181.2-366.9l-3.3-39.6c-2.8-33.6 8.8-66.1 31.8-89.2 19.4-19.2 44.9-30.6 72.2-32.3m2.9-59.6h-1.7c-41.9 1.4-83.3 17.9-115.3 49.9-37.3 37.3-53.1 87.4-49 136.2-0.2 0.1-0.5 0.1-0.8 0.1 11.8 161.6 78.9 319.9 202.5 443.4S580.3 916.2 741.9 928c0.1-0.3 0.1-0.6 0.2-0.9 4.9 0.4 9.9 0.6 14.9 0.6 43.9 0 87.7-16.2 121.2-49.7 32-32 48.5-73.3 49.9-115.2 0.9-26.5-18.6-49.5-44.2-56.3l-212.4-56.9c-5.1-1.4-10.3-2-15.4-2-22.6 0-43.9 13-54.1 34.1-5 10.3-8.8 20.9-11.6 31.8-61-25.4-118.4-62.1-168.1-111.8-49.7-49.7-86.4-107.2-111.8-168.2 10.9-2.8 21.6-6.7 31.8-11.7 25.9-12.6 39.6-41.7 32.1-69.5L317.5 140c-6.8-24.8-29-44.1-54.7-44.1z" p-id="11162" fill="currentColor"></path></svg>
