<?xml version="1.0" standalone="no"?><!DOCTYPE svg PUBLIC "-//W3C//DTD SVG 1.1//EN" "http://www.w3.org/Graphics/SVG/1.1/DTD/svg11.dtd"><svg t="1718079816084" class="icon" viewBox="0 0 1024 1024" version="1.1" xmlns="http://www.w3.org/2000/svg" p-id="9338" xmlns:xlink="http://www.w3.org/1999/xlink" width="200" height="200"><path d="M597.232 536.736l0.912-0.912c10.432-10.432 21.328-20.8 31.312-31.312a17.824 17.824 0 0 0 4.992-18.144 20.112 20.112 0 0 0-14.976-14.976c-8.16-2.72-15.872 0-25.408 9.984-10.432 9.984-20.416 20.416-30.848 30.848l-1.808 1.808-28.576 28.576-2.272 2.272-64.88-65.792a23.36 23.36 0 0 0-24.96-8.16h-0.448a22.88 22.88 0 0 0-13.616 16.336 17.6 17.6 0 0 0 4.992 18.144c13.152 13.616 26.768 27.2 38.56 39.024 8.16 8.16 18.144 17.696 27.2 27.2l2.272 2.272-11.344 11.344h-1.808c-5.904 0.448-12.256 0-18.144 0a97.28 97.28 0 0 0-30.4 1.808 21.312 21.312 0 0 0 0.912 38.56 153.6 153.6 0 0 0 41.28 2.272 220.704 220.704 0 0 1 24.496 0h3.2v39.024h-28.144c-10.896 0-23.584-0.448-34.928 0.448a20.8 20.8 0 0 0-18.144 21.328 21.136 21.136 0 0 0 6.4 14.512 21.424 21.424 0 0 0 15.424 5.904c10.432 0.448 19.968 0 31.312 0h28.576v28.128c0 11.344 0 22.688 0.448 34.032a21.76 21.76 0 0 0 19.056 19.968h1.808a20.672 20.672 0 0 0 13.152-4.992 19.6 19.6 0 0 0 7.712-14.976c0.448-11.344 0.448-22.688 0.448-34.032v-28.128h59.44a20.56 20.56 0 0 0 16.784-7.264 18.288 18.288 0 0 0 4.992-15.872 20.8 20.8 0 0 0-21.776-18.608h-60.336V628.8h3.2c8.16-0.448 16.336 0 24.496 0a226.016 226.016 0 0 0 39.024-1.36 20.112 20.112 0 0 0 14.976-18.144 19.424 19.424 0 0 0-9.984-20.416 65.072 65.072 0 0 0-31.312-2.72 84.976 84.976 0 0 1-18.608 0h-1.808l-9.6-12.256 1.808-1.808c11.808-12.224 23.152-24.432 34.944-35.36z" fill="currentColor" p-id="9339"></path><path d="M827.248 343.008h-56.256l9.984-29.04a72.144 72.144 0 0 0-44.912-90.288l-278.56-92.096a70.88 70.88 0 0 0-54.4 4.08 68.064 68.064 0 0 0-35.392 41.28c-0.448 1.808-4.08 13.616-4.992 18.144l-1.808-0.448a71.008 71.008 0 0 0-86.208 52.176l-23.584 96.176h-42.24A64.864 64.864 0 0 0 144 407.872v367.04a125.472 125.472 0 0 0 125.216 125.216h558.032a54.8 54.8 0 0 0 54.896-54.896V397.904a54.512 54.512 0 0 0-54.896-54.896z m-418.752-140.64l3.632-10.896a23.824 23.824 0 0 1 30.4-14.976l278.56 92.096a24.192 24.192 0 0 1 14.064 11.792 25.072 25.072 0 0 1 1.36 18.144l-14.976 44.464h-21.776a73.008 73.008 0 0 0-9.6-46.736 69.424 69.424 0 0 0-44-32.208l-239.088-58.528a22.096 22.096 0 0 0 1.424-3.152z m-87.552 56.64l0.448-0.912a24.928 24.928 0 0 1 11.344-14.976 23.088 23.088 0 0 1 18.144-2.72l284.912 69.872a24.928 24.928 0 0 1 14.976 11.344 22.8 22.8 0 0 1 2.72 18.144 28.912 28.912 0 0 0-0.912 3.2h-352z m504.96 584.352H269.216a68.8 68.8 0 0 1-68.512-68.512V407.888a7.648 7.648 0 0 1 7.712-7.712H825.44v443.2z" fill="currentColor" p-id="9340"></path></svg>
