<?xml version="1.0" standalone="no"?><!DOCTYPE svg PUBLIC "-//W3C//DTD SVG 1.1//EN" "http://www.w3.org/Graphics/SVG/1.1/DTD/svg11.dtd"><svg t="1718595018835" class="icon" viewBox="0 0 1024 1024" version="1.1" xmlns="http://www.w3.org/2000/svg" p-id="29697" xmlns:xlink="http://www.w3.org/1999/xlink" width="200" height="200"><path d="M857 96H168c-17.673 0-32 14.327-32 32v768c0 17.673 14.327 32 32 32h529c106.039 0 192-85.961 192-192V128c0-17.673-14.327-32-32-32z m-32 64v576l-0.017 2.117C823.853 807.833 766.986 864 697 864H200V160h625z" fill="#ffffff" p-id="29698"></path><path d="M736 672c17.673 0 32 14.327 32 32 0 61.856-50.144 112-112 112-17.673 0-32-14.327-32-32 0-17.496 14.042-31.713 31.47-31.996L656 752c26.245 0 47.57-21.063 47.994-47.206L704 704c0-17.673 14.327-32 32-32z" fill="#ffffff" p-id="29699"></path><path d="M752 264v64H272v-64zM576 440v64H272v-64z" fill="#ffffff" p-id="29700"></path></svg>