<svg width="177" height="177" viewBox="0 0 177 177" fill="none" xmlns="http://www.w3.org/2000/svg">
<path d="M148.134 16.5938H29.0391C25.9843 16.5938 23.5078 19.0702 23.5078 22.125V154.875C23.5078 157.93 25.9843 160.406 29.0391 160.406H120.478C138.807 160.406 153.665 145.548 153.665 127.219V22.125C153.665 19.0702 151.189 16.5938 148.134 16.5938ZM142.603 27.6562V127.219L142.6 127.585C142.404 139.635 132.575 149.344 120.478 149.344H34.5703V27.6562H142.603Z" fill="white"/>
<path d="M127.219 116.156C130.274 116.156 132.75 118.633 132.75 121.688C132.75 132.379 124.083 141.047 113.391 141.047C110.336 141.047 107.859 138.57 107.859 135.516C107.859 132.491 110.287 130.034 113.299 129.985L113.391 129.984C117.927 129.984 121.613 126.344 121.686 121.825L121.688 121.688C121.688 118.633 124.164 116.156 127.219 116.156Z" fill="white"/>
<path d="M129.984 45.6328V56.6953H47.0156V45.6328H129.984ZM99.5625 76.0547V87.1172H47.0156V76.0547H99.5625Z" fill="white"/>
</svg>
