<?xml version="1.0" standalone="no"?><!DOCTYPE svg PUBLIC "-//W3C//DTD SVG 1.1//EN" "http://www.w3.org/Graphics/SVG/1.1/DTD/svg11.dtd"><svg t="1718587879727" class="icon" viewBox="0 0 1024 1024" version="1.1" xmlns="http://www.w3.org/2000/svg" p-id="25575" xmlns:xlink="http://www.w3.org/1999/xlink" width="200" height="200"><path d="M841.0051689572745 145.73206153395245l-447.3323751880572-112.68404634393353c-53.38608262954491-13.436095249240845-107.48875610233925 18.98968091245985-120.92485135158012 72.19661509474395l-12.002910616948238 47.832496966325905h-56.96904126448268c-54.998414236201434 0-99.6062479892143 44.607833753012855-99.6062479892143 99.6062479892143v643.1410595059119c0 54.998414236201434 44.607833753012855 99.6062479892143 99.6062479892143 99.6062479892143H664.9027563951288c54.998414236201434 0 99.6062479892143-44.607833753012855 99.6062479892143-99.6062479892143v-39.412543511418555l148.69277966767513-589.7549783492639c13.436095249240845-53.38608262954491-18.98968091245985-107.48875610233925-72.19661509474395-120.92485135158012z m-522.0370611799678-28.84281605386605c6.986768822614738-27.767928316095038 35.29214248049216-44.78698220027364 63.06007079658719-37.62106493039811l297.7438562298718 75.06298141353543c-4.836993347072702-0.7165923161463046-9.853136614303079-1.0748877377710178-14.869278408636577-1.0748877377710178H309.8315634791496l9.136544298156771-36.3670287453663z m398.0666950623356 779.1143377133894c0 28.663669079502128-23.28923039064704 51.95289947014919-51.952897997252286 51.95289947014919H203.77599053620622c-28.663669079502128 0-51.95289947014919-23.28923039064704-51.95289947014919-51.95289947014919v-643.1410609788088c0-28.663669079502128 23.28923039064704-51.95289947014919 51.95289947014919-51.952897997252286H664.9027563951288c28.663669079502128 0 51.95289947014919 23.28923039064704 51.95289947014919 51.952897997252286l0.17914697436391774 643.1410609788088z m149.94681585270695-640.9912855032667l-102.29346733364181 405.9492046483573V252.86252221466702c0-43.3537990408779-27.588781341731117-80.0791232078689-66.10558408974256-93.8735138787345l130.77798649298626 32.963218557689316c27.767928316095038 6.986768822614738 44.607833753012855 35.11299403323135 37.62106493039811 63.06007079658719z m-182.55173898877155-99.78539496357821h0.35829689452159125-0.35829689452159125z m4.83699481996958 0.895739290510222s0.17914844726079562 0 0 0c0.17914844726079562 0 0 0 0 0z" p-id="25576" fill="#ffffff"></path></svg>