<svg width="165" height="165" viewBox="0 0 165 165" fill="none" xmlns="http://www.w3.org/2000/svg">
<path d="M141.938 26.0208L64.2665 9.44659C54.997 7.47033 45.6031 12.2397 43.2702 20.0657L41.1862 27.1011H31.2946C21.7452 27.1011 14 33.6623 14 41.7519V136.349C14 144.439 21.7452 151 31.2946 151H111.361C120.91 151 128.654 144.439 128.654 136.349V130.552L154.473 43.8072C156.806 35.9548 151.175 27.9971 141.938 26.0208ZM51.2955 21.7785C52.5086 17.6942 57.4232 15.1909 62.2447 16.2449L113.942 27.2856C113.102 27.1802 112.231 27.1275 111.361 27.1275H49.7091L51.2955 21.7785ZM120.412 136.376C120.412 140.591 116.368 144.017 111.392 144.017H31.2946C26.3177 144.017 22.2741 140.591 22.2741 136.376V41.7782C22.2741 37.5622 26.3177 34.1366 31.2946 34.1366H111.361C116.337 34.1366 120.381 37.5622 120.381 41.7782L120.412 136.376ZM146.447 42.0944L128.686 101.804V41.7782C128.686 35.4015 123.896 29.9997 117.209 27.9707L139.915 32.8192C144.737 33.8468 147.66 37.9838 146.447 42.0944Z" fill="white" stroke="white" stroke-width="2"/>
</svg>
