<?xml version="1.0" standalone="no"?><!DOCTYPE svg PUBLIC "-//W3C//DTD SVG 1.1//EN" "http://www.w3.org/Graphics/SVG/1.1/DTD/svg11.dtd"><svg t="1718584639354" class="icon" viewBox="0 0 1024 1024" version="1.1" xmlns="http://www.w3.org/2000/svg" p-id="5382" xmlns:xlink="http://www.w3.org/1999/xlink" width="200" height="200"><path d="M810.65 473.532h42.654v358.458h-42.654z" fill="#ffffff" p-id="5383"></path><path d="M170.666 258.412h42.67v317.586H170.666zM597.31 258.412v274.93h42.688V223.258z" fill="#ffffff" p-id="5384"></path><path d="M170.666 342.472l469.332-85.216v-171.9L170.666 170.57z" fill="#ffffff" p-id="5385"></path><path d="M810.65 597.528V384.22l213.336 106.656z" fill="#ffffff" p-id="5386"></path><path d="M746.652 831.99m-106.654 0a106.654 106.654 0 1 0 213.308 0 106.654 106.654 0 1 0-213.308 0Z" fill="#ffffff" p-id="5387"></path><path d="M426.658 533.342c0-58.904 47.766-106.684 106.67-106.684 58.92 0 106.67 47.78 106.67 106.684s-47.75 106.654-106.67 106.654c-58.904 0-106.67-47.75-106.67-106.654z" fill="#ffffff" p-id="5388"></path><path d="M106.674 575.998m-106.662 0a106.662 106.662 0 1 0 213.324 0 106.662 106.662 0 1 0-213.324 0Z" fill="#ffffff" p-id="5389"></path></svg>