<?xml version="1.0" standalone="no"?><!DOCTYPE svg PUBLIC "-//W3C//DTD SVG 1.1//EN" "http://www.w3.org/Graphics/SVG/1.1/DTD/svg11.dtd"><svg t="1718596362119" class="icon" viewBox="0 0 1024 1024" version="1.1" xmlns="http://www.w3.org/2000/svg" p-id="33649" xmlns:xlink="http://www.w3.org/1999/xlink" width="200" height="200"><path d="M753.35646 210.294405l60.337683 60.337684a42.668098 42.668098 0 0 1 0 60.337683l-392.200668 392.21212L240.480424 783.588285l60.280426-181.08176 392.200669-392.21212a42.668098 42.668098 0 0 1 60.394941 0zM213.329039 85.336196A128.004294 128.004294 0 0 0 85.336196 213.329039v597.330471a128.004294 128.004294 0 0 0 127.992843 128.004294h597.330471a128.004294 128.004294 0 0 0 128.004294-128.004294V213.329039A128.004294 128.004294 0 0 0 810.65951 85.336196zM170.626587 0h682.701021a170.626587 170.626587 0 0 1 170.626586 170.626587v682.701021a170.626587 170.626587 0 0 1-170.626586 170.626586H170.626587a170.626587 170.626587 0 0 1-170.626587-170.626586V170.626587A170.626587 170.626587 0 0 1 170.626587 0z" fill="#ffffff" p-id="33650"></path></svg>