<svg width="200" height="177" viewBox="0 0 200 177" fill="none" xmlns="http://www.w3.org/2000/svg">
<path d="M123 7.375L175 53.6458V152.781C175 157.98 170.233 162.22 164.392 162.22H43.9417C41.1215 162.211 38.4208 161.211 36.4321 159.442C34.4433 157.672 33.329 155.276 33.3334 152.781V16.815C33.3334 11.6156 38.1001 7.375 43.9417 7.375H123ZM118.417 18.4375H45.8584C45.8334 18.4375 45.8334 18.4596 45.8334 18.4596V151.165C45.8334 151.188 45.8584 151.188 45.8584 151.188L162.5 151.165V58.6681H130.858C127.648 58.6389 124.58 57.4876 122.324 55.4651C120.069 53.4426 118.808 50.7129 118.817 47.8711V18.7989L118.417 18.4375ZM144.708 125.375C147.625 125.375 150.042 127.875 150.042 130.906C150.042 133.937 147.625 136.437 144.708 136.437H64.9584C62.0417 136.437 59.6251 133.937 59.6251 130.906C59.6251 127.875 62.0417 125.375 64.9584 125.375H144.708ZM144.708 103.25C147.625 103.25 150.042 105.75 150.042 108.781C150.042 111.812 147.625 114.312 144.708 114.312H64.9584C62.0417 114.312 59.6251 111.812 59.6251 108.781C59.6251 105.75 62.0084 103.25 64.9584 103.25H144.708ZM83.5167 59.5753C96.6917 59.5753 107.408 68.0565 107.408 78.4553C107.408 79.7071 106.846 80.9076 105.846 81.7928C104.846 82.678 103.49 83.1753 102.075 83.1753C100.661 83.1753 99.304 82.678 98.3038 81.7928C97.3036 80.9076 96.7417 79.7071 96.7417 78.4553C96.7417 73.3223 90.6917 69.0153 83.5167 69.0153C76.3501 69.0153 70.2917 73.3444 70.2917 78.4553C70.2917 79.7071 69.7298 80.9076 68.7296 81.7928C67.7294 82.678 66.3729 83.1753 64.9584 83.1753C63.5439 83.1753 62.1873 82.678 61.1871 81.7928C60.187 80.9076 59.6251 79.7071 59.6251 78.4553C59.6251 68.0565 70.3417 59.5753 83.5167 59.5753ZM83.5167 27.1252C88.0254 27.1252 92.3494 28.7103 95.5375 31.5318C98.7257 34.3533 100.517 38.1801 100.517 42.1702C100.517 46.1604 98.7257 49.9872 95.5375 52.8087C92.3494 55.6302 88.0254 57.2153 83.5167 57.2153C79.008 57.2153 74.684 55.6302 71.4959 52.8087C68.3078 49.9872 66.5167 46.1604 66.5167 42.1702C66.5167 38.1801 68.3078 34.3533 71.4959 31.5318C74.684 28.7103 79.008 27.1252 83.5167 27.1252ZM83.5167 35.3631C82.5066 35.3631 81.5064 35.5392 80.5732 35.8813C79.6401 36.2234 78.7921 36.7248 78.0779 37.3569C77.3636 37.989 76.7971 38.7394 76.4105 39.5653C76.024 40.3912 75.8251 41.2763 75.8251 42.1702C75.8251 43.0642 76.024 43.9493 76.4105 44.7752C76.7971 45.6011 77.3636 46.3515 78.0779 46.9836C78.7921 47.6157 79.6401 48.1171 80.5732 48.4592C81.5064 48.8013 82.5066 48.9774 83.5167 48.9774C85.5567 48.9774 87.5131 48.2602 88.9556 46.9836C90.398 45.707 91.2084 43.9756 91.2084 42.1702C91.2084 40.3649 90.398 38.6335 88.9556 37.3569C87.5131 36.0803 85.5567 35.3631 83.5167 35.3631ZM130.417 26.8671V46.9788C130.417 47.849 131.275 48.6013 132.25 48.6013H154.983L130.417 26.8745V26.8671Z" fill="white"/>
</svg>
