<?xml version="1.0" standalone="no"?><!DOCTYPE svg PUBLIC "-//W3C//DTD SVG 1.1//EN" "http://www.w3.org/Graphics/SVG/1.1/DTD/svg11.dtd"><svg t="1718585270817" class="icon" viewBox="0 0 1024 1024" version="1.1" xmlns="http://www.w3.org/2000/svg" p-id="9121" xmlns:xlink="http://www.w3.org/1999/xlink" width="200" height="200"><path d="M416.225882 130.349176a87.160471 87.160471 0 0 1 147.937883 0h176.489411a90.352941 90.352941 0 0 1 90.352942 90.352942v566.211764a90.352941 90.352941 0 0 1-90.352942 90.352942H239.796706a90.352941 90.352941 0 0 1-90.352941-90.352942v-566.211764a90.352941 90.352941 0 0 1 90.352941-90.352942H416.225882z m74.029177 19.275295a27.105882 27.105882 0 0 0-25.901177 19.335529l-6.445176 21.624471h-218.051765a30.117647 30.117647 0 0 0-30.117647 30.117647v566.211764a30.117647 30.117647 0 0 0 30.117647 30.117647h500.736a30.117647 30.117647 0 0 0 30.117647-30.117647v-566.211764a30.117647 30.117647 0 0 0-30.117647-30.117647h-218.051765l-6.384941-21.624471a27.105882 27.105882 0 0 0-25.901176-19.275294z m0 219.617882a62.704941 62.704941 0 1 0 0 125.409882 62.704941 62.704941 0 0 0 0-125.409882zM367.194353 431.887059a122.940235 122.940235 0 1 1 189.741176 103.303529 182.151529 182.151529 0 0 1 115.350589 169.441883h-60.235294a121.856 121.856 0 1 0-243.772236 0h-60.235294c0-76.980706 47.766588-142.817882 115.350588-169.441883a122.88 122.88 0 0 1-56.199529-103.243294z" fill="#ffffff" fill-opacity=".9" p-id="9122"></path></svg>